<svg xmlns="http://www.w3.org/2000/svg" width="32" height="32" viewBox="0 0 32 32" fill="none">
  <path d="M19.0153 20.585H12.3486" stroke="url(#paint0_linear_1080_3150)" stroke-width="1.5" stroke-linecap="round" stroke-linejoin="round"/>
  <path d="M15.6826 17.3311V23.9977" stroke="url(#paint1_linear_1080_3150)" stroke-width="1.5" stroke-linecap="round" stroke-linejoin="round"/>
  <path d="M16.8399 3.45117L12.9733 12.4245H9.17328C8.26661 12.4245 7.39995 12.6112 6.61328 12.9445L8.94661 7.37117L8.99995 7.23784L9.09328 7.02451C9.11995 6.94451 9.14662 6.86451 9.18662 6.79784C10.9333 2.75784 12.9066 1.83784 16.8799 3.35784L16.8399 3.45117Z" stroke="url(#paint2_linear_1080_3150)" stroke-width="1.5" stroke-linecap="round" stroke-linejoin="round"/>
  <path d="M22.187 12.4241H12.9736L16.8403 3.45076L16.8803 3.35742C17.0803 3.42409 17.267 3.51742 17.467 3.59742L20.4136 4.83742C22.0536 5.51742 23.2003 6.22409 23.8936 7.07742C24.027 7.23742 24.1336 7.38409 24.227 7.55742C24.347 7.74409 24.4403 7.93076 24.4936 8.13076C24.547 8.25076 24.587 8.37076 24.6136 8.47742C24.9736 9.59742 24.7603 10.9708 24.067 12.6908C23.467 12.5041 22.827 12.4241 22.187 12.4241Z" stroke="url(#paint3_linear_1080_3150)" stroke-width="1.5" stroke-linecap="round" stroke-linejoin="round"/>
  <path d="M28.696 21.5315C28.696 21.7981 28.6826 22.0648 28.6693 22.3315C28.416 26.9848 25.816 29.3315 20.8826 29.3315H10.4826C10.1626 29.3315 9.84262 29.3048 9.53595 29.2648C5.29595 28.9848 3.02928 26.7181 2.74928 22.4781C2.70928 22.1715 2.68262 21.8515 2.68262 21.5315V18.9315C2.68262 16.2515 4.30928 13.9448 6.62928 12.9448C7.42928 12.6115 8.28262 12.4248 9.18928 12.4248H22.2026C22.856 12.4248 23.496 12.5181 24.0826 12.6915C26.736 13.5048 28.696 15.9848 28.696 18.9315V21.5315Z" stroke="url(#paint4_linear_1080_3150)" stroke-width="1.5" stroke-linecap="round" stroke-linejoin="round"/>
  <path d="M6.61366 12.9444C4.29366 13.9444 2.66699 16.2511 2.66699 18.9311V15.0244C2.66699 11.2378 5.36033 8.07776 8.94699 7.37109L6.61366 12.9444Z" stroke="url(#paint5_linear_1080_3150)" stroke-width="1.5" stroke-linecap="round" stroke-linejoin="round"/>
  <path d="M28.6915 18.9299C28.6915 15.9965 26.7448 13.5032 24.0781 12.7032C24.7715 10.9699 24.9715 9.60988 24.6381 8.47655C24.6115 8.35655 24.5715 8.23655 24.5181 8.12988C26.9981 9.40988 28.6915 12.0365 28.6915 15.0232V18.9299Z" stroke="url(#paint6_linear_1080_3150)" stroke-width="1.5" stroke-linecap="round" stroke-linejoin="round"/>
  <defs>
    <linearGradient id="paint0_linear_1080_3150" x1="15.682" y1="20.585" x2="15.682" y2="21.9183" gradientUnits="userSpaceOnUse">
      <stop stop-color="#1BBABC"/>
      <stop offset="1" stop-color="#05285E"/>
    </linearGradient>
    <linearGradient id="paint1_linear_1080_3150" x1="16.3493" y1="17.3311" x2="16.3493" y2="23.9977" gradientUnits="userSpaceOnUse">
      <stop stop-color="#1BBABC"/>
      <stop offset="1" stop-color="#05285E"/>
    </linearGradient>
    <linearGradient id="paint2_linear_1080_3150" x1="11.7466" y1="2.66699" x2="11.7466" y2="12.9445" gradientUnits="userSpaceOnUse">
      <stop stop-color="#1BBABC"/>
      <stop offset="1" stop-color="#05285E"/>
    </linearGradient>
    <linearGradient id="paint3_linear_1080_3150" x1="18.8799" y1="3.35742" x2="18.8799" y2="12.6908" gradientUnits="userSpaceOnUse">
      <stop stop-color="#1BBABC"/>
      <stop offset="1" stop-color="#05285E"/>
    </linearGradient>
    <linearGradient id="paint4_linear_1080_3150" x1="15.6893" y1="12.4248" x2="15.6893" y2="29.3315" gradientUnits="userSpaceOnUse">
      <stop stop-color="#1BBABC"/>
      <stop offset="1" stop-color="#05285E"/>
    </linearGradient>
    <linearGradient id="paint5_linear_1080_3150" x1="5.80699" y1="7.37109" x2="5.80699" y2="18.9311" gradientUnits="userSpaceOnUse">
      <stop stop-color="#1BBABC"/>
      <stop offset="1" stop-color="#05285E"/>
    </linearGradient>
    <linearGradient id="paint6_linear_1080_3150" x1="26.3848" y1="8.12988" x2="26.3848" y2="18.9299" gradientUnits="userSpaceOnUse">
      <stop stop-color="#1BBABC"/>
      <stop offset="1" stop-color="#05285E"/>
    </linearGradient>
  </defs>
</svg>