<svg xmlns="http://www.w3.org/2000/svg" width="32" height="32" viewBox="0 0 32 32" fill="none">
  <path d="M12.667 18.3336C12.667 19.627 13.667 20.667 14.8937 20.667H17.4003C18.467 20.667 19.3337 19.7603 19.3337 18.627C19.3337 17.4136 18.8003 16.9736 18.0137 16.6936L14.0003 15.2936C13.2137 15.0136 12.6803 14.587 12.6803 13.3603C12.6803 12.2403 13.547 11.3203 14.6136 11.3203H17.1203C18.347 11.3203 19.347 12.3603 19.347 13.6536" stroke="url(#paint0_linear_1080_2355)" stroke-width="1.5" stroke-linecap="round" stroke-linejoin="round"/>
  <path d="M16 10V22" stroke="url(#paint1_linear_1080_2355)" stroke-width="1.5" stroke-linecap="round" stroke-linejoin="round"/>
  <path d="M29.3337 16.0003C29.3337 23.3603 23.3603 29.3337 16.0003 29.3337C8.64033 29.3337 2.66699 23.3603 2.66699 16.0003C2.66699 8.64033 8.64033 2.66699 16.0003 2.66699" stroke="url(#paint2_linear_1080_2355)" stroke-width="1.5" stroke-linecap="round" stroke-linejoin="round"/>
  <path d="M29.3333 8.00033V2.66699H24" stroke="url(#paint3_linear_1080_2355)" stroke-width="1.5" stroke-linecap="round" stroke-linejoin="round"/>
  <path d="M22.667 9.33366L29.3337 2.66699" stroke="url(#paint4_linear_1080_2355)" stroke-width="1.5" stroke-linecap="round" stroke-linejoin="round"/>
  <defs>
    <linearGradient id="paint0_linear_1080_2355" x1="16.007" y1="11.3203" x2="16.007" y2="20.667" gradientUnits="userSpaceOnUse">
      <stop stop-color="#1BBABC"/>
      <stop offset="1" stop-color="#05285E"/>
    </linearGradient>
    <linearGradient id="paint1_linear_1080_2355" x1="16.6667" y1="10" x2="16.6667" y2="22" gradientUnits="userSpaceOnUse">
      <stop stop-color="#1BBABC"/>
      <stop offset="1" stop-color="#05285E"/>
    </linearGradient>
    <linearGradient id="paint2_linear_1080_2355" x1="16.0003" y1="2.66699" x2="16.0003" y2="29.3337" gradientUnits="userSpaceOnUse">
      <stop stop-color="#1BBABC"/>
      <stop offset="1" stop-color="#05285E"/>
    </linearGradient>
    <linearGradient id="paint3_linear_1080_2355" x1="26.6667" y1="2.66699" x2="26.6667" y2="8.00033" gradientUnits="userSpaceOnUse">
      <stop stop-color="#1BBABC"/>
      <stop offset="1" stop-color="#05285E"/>
    </linearGradient>
    <linearGradient id="paint4_linear_1080_2355" x1="26.0003" y1="2.66699" x2="26.0003" y2="9.33366" gradientUnits="userSpaceOnUse">
      <stop stop-color="#1BBABC"/>
      <stop offset="1" stop-color="#05285E"/>
    </linearGradient>
  </defs>
</svg>