<svg xmlns="http://www.w3.org/2000/svg" width="32" height="32" viewBox="0 0 32 32" fill="none">
  <path d="M29.333 11.227C29.333 13.3337 27.9997 14.667 25.893 14.667H21.333V5.34699C21.333 3.86699 22.5463 2.66699 24.0263 2.66699C25.4797 2.68033 26.813 3.26699 27.773 4.22699C28.733 5.20032 29.333 6.53366 29.333 8.00033V11.227Z" stroke="url(#paint0_linear_1080_3317)" stroke-width="1.5" stroke-linecap="round" stroke-linejoin="round"/>
  <path d="M2.66699 28.0003C2.66699 29.107 3.92033 29.7337 4.80033 29.067L7.08032 27.3603C7.61366 26.9603 8.36033 27.0137 8.84033 27.4937L11.0537 29.7203C11.5737 30.2403 12.427 30.2403 12.947 29.7203L15.187 27.4803C15.6537 27.0137 16.4003 26.9603 16.9203 27.3603L19.2003 29.067C20.0803 29.7203 21.3337 29.0937 21.3337 28.0003V5.33366C21.3337 3.86699 22.5337 2.66699 24.0003 2.66699H9.33366H8.00033C4.00033 2.66699 2.66699 5.05366 2.66699 8.00033V9.33366V28.0003Z" stroke="url(#paint1_linear_1080_3317)" stroke-width="1.5" stroke-linecap="round" stroke-linejoin="round"/>
  <path d="M8.33301 13.333H15.6663" stroke="url(#paint2_linear_1080_3317)" stroke-width="1.5" stroke-linecap="round" stroke-linejoin="round"/>
  <path d="M12 17.0003V9.66699" stroke="url(#paint3_linear_1080_3317)" stroke-width="1.5" stroke-linecap="round" stroke-linejoin="round"/>
  <defs>
    <linearGradient id="paint0_linear_1080_3317" x1="25.333" y1="2.66699" x2="25.333" y2="14.667" gradientUnits="userSpaceOnUse">
      <stop stop-color="#1ECFCA"/>
      <stop offset="1" stop-color="#05285E"/>
    </linearGradient>
    <linearGradient id="paint1_linear_1080_3317" x1="13.3337" y1="2.66699" x2="13.3337" y2="30.1103" gradientUnits="userSpaceOnUse">
      <stop stop-color="#1ECFCA"/>
      <stop offset="1" stop-color="#05285E"/>
    </linearGradient>
    <linearGradient id="paint2_linear_1080_3317" x1="11.9997" y1="13.333" x2="11.9997" y2="14.6663" gradientUnits="userSpaceOnUse">
      <stop stop-color="#1ECFCA"/>
      <stop offset="1" stop-color="#05285E"/>
    </linearGradient>
    <linearGradient id="paint3_linear_1080_3317" x1="12.6667" y1="9.66699" x2="12.6667" y2="17.0003" gradientUnits="userSpaceOnUse">
      <stop stop-color="#1ECFCA"/>
      <stop offset="1" stop-color="#05285E"/>
    </linearGradient>
  </defs>
</svg>